<?xml version="1.0" encoding="UTF-8"?>
<svg id="Layer_2" data-name="Layer 2" xmlns="http://www.w3.org/2000/svg" viewBox="0 0 688.28 628.77">
  <defs>
    <style>
      .cls-1 {
        fill: #fff;
      }
    </style>
  </defs>
  <g id="_Ñëîé_1" data-name="Ñëîé 1">
    <path class="cls-1" d="m12.96,18.28c20.05-25.78,60.15-22.92,91.66,0l552.83,501.27c31.51,25.78,40.1,65.88,20.05,88.8-20.05,25.78-60.15,22.92-91.66,0L33.01,107.07C1.5,84.16-7.09,44.06,12.96,18.28Z"/>
    <path class="cls-1" d="m18.69,614.07c-22.92-22.92-25.78-57.29-2.86-80.2L588.7,21.14c22.92-22.92,57.29-25.78,80.2-2.86,22.92,22.92,25.78,57.29,2.86,80.2L98.89,611.2c-20.05,22.92-57.29,22.92-80.2,2.86Z"/>
  </g>
</svg>