<?xml version="1.0" encoding="UTF-8"?>
<svg id="Layer_2" data-name="Layer 2" xmlns="http://www.w3.org/2000/svg" viewBox="0 0 800 592.31">
  <defs>
    <style>
      .cls-1 {
        fill: #fff;
      }
    </style>
  </defs>
  <g id="_Ñëîé_1" data-name="Ñëîé 1">
    <path class="cls-1" d="m60.17,120.35h679.65c33.23,0,60.17-26.94,60.17-60.17S773.06,0,739.83,0H60.17C26.94,0,0,26.94,0,60.17s26.94,60.17,60.17,60.17Zm679.65,351.62H60.17c-33.23,0-60.17,26.94-60.17,60.17s26.94,60.17,60.17,60.17h679.65c33.23,0,60.17-26.94,60.17-60.17s-26.94-60.17-60.17-60.17Zm0-235.98H60.17c-33.23,0-60.17,26.94-60.17,60.17s26.94,60.17,60.17,60.17h679.65c33.23,0,60.17-26.94,60.17-60.17s-26.94-60.17-60.17-60.17Z"/>
  </g>
</svg>